<?xml version="1.0" encoding="utf-8"?>
<!-- Generator: Adobe Illustrator 24.1.0, SVG Export Plug-In . SVG Version: 6.00 Build 0)  -->
<svg version="1.1"
	 id="Layer_1" xmlns:cc="http://creativecommons.org/ns#" xmlns:dc="http://purl.org/dc/elements/1.1/" xmlns:inkscape="http://www.inkscape.org/namespaces/inkscape" xmlns:rdf="http://www.w3.org/1999/02/22-rdf-syntax-ns#" xmlns:sodipodi="http://sodipodi.sourceforge.net/DTD/sodipodi-0.dtd" xmlns:svg="http://www.w3.org/2000/svg"
	 xmlns="http://www.w3.org/2000/svg" xmlns:xlink="http://www.w3.org/1999/xlink" x="0px" y="0px" viewBox="0 0 150 150"
	 style="enable-background:new 0 0 150 150;" xml:space="preserve">
<g>
	<g transform="translate(0,-952.36218)">
		<path d="M135.8,1018l-37.3-29.4c-0.6-0.4-1.2-0.6-1.8-0.6c-0.6,0-1.2,0.2-1.8,0.6L57.7,1018c-1,0.9-1.6,3-0.6,4.3
			c1,1.3,3.1,1.4,4.3,0.4l35.4-28l35.5,28c1.2,1.1,3.3,0.9,4.3-0.4C137.3,1021.1,137.1,1018.9,135.8,1018z M67.3,1021.3v13.5
			c0,0,0.1,0,0.1,0c1.9,0.6,3.9,1.4,5.8,2.3v-20.4L67.3,1021.3z M120.3,1016.6v30.1h-12.7v-8.8c0-5.9-4.9-10.8-10.8-10.8
			c-5.9,0-10.8,4.9-10.8,10.8v6.8c0.6,0.4,0.9,0.7,0.9,0.7s1.9,0.3,3.1,0.4c0.3,0,0.9,0.1,1.9,0.2v-8.1c0-2.8,2.1-4.9,4.9-4.9
			c2.8,0,4.9,2.1,4.9,4.9v10.4c2.1,0.7,4.2,1.6,6.2,2.7c0.7,0.4,1.2,1,1.6,1.6h13.8c1.6,0,2.9-1.3,2.9-2.9v-28.4L120.3,1016.6z"/>
	</g>
	<path d="M88.6,102c-3.4,0-6.2,2.8-6.2,6.2c0,3.4,2.8,6.2,6.2,6.2c3.4,0,6.2-2.8,6.2-6.2C94.9,104.8,92.1,102,88.6,102z"/>
	<path d="M31.3,102c-3.4,0-6.2,2.8-6.2,6.2c0,3.4,2.8,6.2,6.2,6.2s6.2-2.8,6.2-6.2C37.6,104.8,34.8,102,31.3,102z"/>
	<path d="M105.6,102c-0.3-1.1-1-2.5-2.4-3.5c-6.5-3.7-15.1-4.7-16.2-4.8c-1.1-0.1-2.8-0.3-2.8-0.3s-9-7-17.6-9.6
		C58.1,81.2,40.5,83,39,83.2c-3.6,0.3-13.4,7.6-13.4,7.6S15,92.7,14.1,93.4c-0.8,0.7-1.1,4.3-1.1,7.6c0,3.3,0.6,7.9,0.6,7.9
		c1.4,0.1,8.9,0.5,8.9,0.5c-0.1-0.4-0.1-0.8-0.1-1.2c0-4.9,4-8.9,8.9-8.9s8.9,4.1,8.9,9c0,0.9-0.1,1.8-0.4,2.8h40.3
		c-0.3-1-0.4-1.8-0.4-2.8c0-4.9,4-8.9,8.9-8.9c4.9,0,8.9,3.9,8.9,8.8c0,0.8-0.1,1.5-0.3,2.2c1.8,0.1,8.3,0.3,8.8,0
		C106.6,110,105.9,103.1,105.6,102z M38.8,92.9c0,0-0.1-5.4,1.4-6.7c1.5-1.3,11-1,11.4-1c0.5,0,0.9,0.5,0.9,0.9
		c0,0.5,0.5,7.6,0.5,7.6L38.8,92.9z M73.2,94.4L56.6,94c0,0-1.6-8-1.7-8.3c-0.1-0.3,0.2-0.6,0.7-0.6c0.5,0,7.3,0.6,10.7,1.8
		c4.7,1.7,8.8,4.8,8.8,4.8L73.2,94.4z"/>
</g>
</svg>
