<?xml version="1.0" encoding="utf-8"?>
<!-- Generator: Adobe Illustrator 24.1.0, SVG Export Plug-In . SVG Version: 6.00 Build 0)  -->
<svg version="1.1"
	 id="Layer_1" xmlns:cc="http://creativecommons.org/ns#" xmlns:dc="http://purl.org/dc/elements/1.1/" xmlns:inkscape="http://www.inkscape.org/namespaces/inkscape" xmlns:rdf="http://www.w3.org/1999/02/22-rdf-syntax-ns#" xmlns:sodipodi="http://sodipodi.sourceforge.net/DTD/sodipodi-0.dtd" xmlns:svg="http://www.w3.org/2000/svg"
	 xmlns="http://www.w3.org/2000/svg" xmlns:xlink="http://www.w3.org/1999/xlink" x="0px" y="0px" viewBox="0 0 150 150"
	 style="enable-background:new 0 0 150 150;" xml:space="preserve">
<g>
	<path d="M63.3,96.8h-3.2L58,90.5c-1.1-3.3-4-5.5-7.6-5.5H32.3c-3.4,0-6.5,2.2-7.6,5.5l-2.1,6.3h-3.2c-1.3,0-2.4,1.1-2.4,2.4v1.5
		c0,1.3,1.1,2.4,2.4,2.4h0.9c-0.4,2.3-0.7,4.8-0.7,7.1v12.1c0,1.3,1.1,2.4,2.4,2.4h4.1c1.3,0,2.4-1.1,2.4-2.4v-3.9h25.1v3.9
		c0,1.3,1.1,2.4,2.4,2.4h4.1c1.3,0,2.4-1.1,2.4-2.4v-12.1c0-2.3-0.2-4.8-0.7-7.1h0.9c1.3,0,2.4-1.1,2.4-2.4v-1.3
		C65.7,97.9,64.6,96.8,63.3,96.8z M32.4,111.6h-5c-0.9,0-1.6-0.7-1.6-1.6v-2.4c0-1,0.9-1.7,1.8-1.5l4.8,0.7c0.6,0.1,1.1,0.6,1.2,1.2
		l0.4,1.6C34.1,110.8,33.4,111.6,32.4,111.6z M56.9,110.1c0,0.9-0.7,1.6-1.6,1.6h-5c-1,0-1.7-0.9-1.5-1.8l0.4-1.6
		c0.1-0.6,0.6-1.1,1.2-1.2l4.8-0.7c1-0.1,1.8,0.6,1.8,1.5v2.3H56.9z"/>
	<path d="M120.8,65.7C124.7,60.5,133,48,133,39.2c0-7.8-6.3-14-14-14c-7.8,0-14,6.3-14,14c0,8.8,8.3,21.2,12.2,26.5
		C117.9,67.1,119.8,67.1,120.8,65.7z M112.1,39.1c0-3.8,3.1-6.8,6.8-6.8s6.8,3.1,6.8,6.8s-3.1,6.8-6.8,6.8S112.1,42.9,112.1,39.1z"
		/>
	<path d="M118.9,71.7H93.3c-6.6,0-12,5.4-12,12s5.2,12.1,12,12.1h5.2c3.2,0,5.7,2.6,5.7,5.7s-2.6,5.7-5.7,5.7H70.7
		c-1.7,0-3.2,1.3-3.2,3.2s1.3,3.2,3.2,3.2h27.7c6.6,0,12-5.4,12-12c0-6.6-5.4-12-12-12h-5.1c-3.2,0-5.7-2.6-5.7-5.7
		c0-3.2,2.6-5.7,5.7-5.7h25.6c1.7,0,3.2-1.3,3.2-3.2C122,73.2,120.6,71.7,118.9,71.7z"/>
</g>
</svg>
