<?xml version="1.0" encoding="utf-8"?>
<!-- Generator: Adobe Illustrator 24.1.0, SVG Export Plug-In . SVG Version: 6.00 Build 0)  -->
<svg version="1.1"
	 id="Layer_1" xmlns:cc="http://creativecommons.org/ns#" xmlns:dc="http://purl.org/dc/elements/1.1/" xmlns:inkscape="http://www.inkscape.org/namespaces/inkscape" xmlns:rdf="http://www.w3.org/1999/02/22-rdf-syntax-ns#" xmlns:sodipodi="http://sodipodi.sourceforge.net/DTD/sodipodi-0.dtd" xmlns:svg="http://www.w3.org/2000/svg"
	 xmlns="http://www.w3.org/2000/svg" xmlns:xlink="http://www.w3.org/1999/xlink" x="0px" y="0px" viewBox="0 0 150 150"
	 style="enable-background:new 0 0 150 150;" xml:space="preserve">
<style type="text/css">
	.st0{fill-rule:evenodd;clip-rule:evenodd;}
	.st1{font-family:'LibreFranklin-ExtraBold';}
	.st2{font-size:12px;}
</style>
<g>
	<path d="M101.3,36.4c-6.4-6.4-15.2-10.4-25-10.4C56.8,26.1,41,41.9,41,61.4v60.2h70.7V61.4C111.6,51.6,107.7,42.8,101.3,36.4z
		 M107.9,116.5H44.7V61.1c0-16.6,13.4-30,30-30h3.2c16.6,0,30,13.4,30,30V116.5z"/>
	<g>
		<path class="st0" d="M28.7,121c-0.3-4.6-1.5-12.8-3.2-16.2c3,2.6,5.5,11,6.4,16.1c-0.1-5.7-1.3-13.8-3.2-23.1
			c1.6,2.9,3.2,6.7,4.5,10.7c-0.6,4.7-1,9.2-1.1,12.3c0.2-0.1,0.3-0.2,0.5-0.2c0.2-7.5,2.2-23,5.1-30.5c-0.6,5.6-0.9,11.1-1,16
			c0.9-4,2-7.8,3.2-10.3c-0.1,6.2-0.9,15.4-1.5,21.7c1.3-4.4,3.5-9.3,5.9-11.3c-1.7,3.3-3.1,9.9-3.5,14.3c0.6-0.1,1.1-0.2,1.7-0.2
			c1.7,0.1,3.4,1.1,5.2,2.1l-0.9,1.7c-1.3-0.8-2.8-1.8-4.4-1.9c-1.3-0.1-2.7,0.7-4.2,0.7c-1.3,0-3-0.8-4-0.7
			c-1.3,0.2-2.3,1.4-3.9,1.5c-1.6,0-2.6-1.2-3.8-1.3c-0.9-0.1-2.1,0.7-3.3,1.6c0,0-1-1.4-1.1-1.6c1.3-0.9,2.9-2.1,4.6-1.9
			C27.4,120.3,28.1,120.7,28.7,121L28.7,121z"/>
	</g>
	<g>
		<path class="st0" d="M108.9,121c-0.3-4.6-1.5-12.8-3.2-16.2c3,2.6,5.5,11,6.4,16.1c-0.1-5.7-1.3-13.8-3.2-23.1
			c1.6,2.9,3.2,6.7,4.5,10.7c-0.6,4.7-1,9.2-1.1,12.3c0.2-0.1,0.3-0.2,0.5-0.2c0.2-7.5,2.2-23,5.1-30.5c-0.6,5.6-0.9,11.1-1,16
			c0.9-4,2-7.8,3.2-10.3c-0.1,6.2-0.9,15.4-1.5,21.7c1.3-4.4,3.5-9.3,5.9-11.3c-1.7,3.3-3.1,9.9-3.5,14.3c0.6-0.1,1.1-0.2,1.7-0.2
			c1.7,0.1,3.4,1.1,5.2,2.1l-0.9,1.7c-1.3-0.8-2.8-1.8-4.4-1.9c-1.3-0.1-2.7,0.7-4.2,0.7c-1.3,0-3-0.8-4-0.7
			c-1.3,0.2-2.3,1.4-3.9,1.5c-1.6,0-2.6-1.2-3.8-1.3c-0.9-0.1-2.1,0.7-3.3,1.6c0,0-1-1.4-1.1-1.6c1.3-0.9,2.9-2.1,4.6-1.9
			C107.6,120.3,108.3,120.7,108.9,121L108.9,121z"/>
	</g>
	<rect x="45.9" y="102.2" class="st0" width="60.6" height="9"/>
	<path d="M68.1,66.9c-1.8,0-3.5-0.7-4.8-2c-1.3-1.3-2-3-2-4.8c0-1.8,0.7-3.5,2-4.8c1.3-1.3,3-2,4.8-2c0,0,0,0,0,0
		c1.8,0,3.5,0.7,4.8,2l3.1,3.1c1.2-1.1,3.1-3.1,3.1-3.1c1.3-1.3,3-2,4.8-2l0,0h0h0c3.8,0,6.8,3,6.8,6.8c0,1.8-0.7,3.5-2,4.8
		c-1.3,1.3-3,2-4.8,2c0,0,0,0,0,0c-1.8,0-3.5-0.7-4.8-2L76,61.8c-1.2,1.1-3.1,3.1-3.1,3.1C71.6,66.2,69.9,66.9,68.1,66.9
		C68.1,66.9,68.1,66.9,68.1,66.9z M77.8,60.1l3.1,3.1c0.8,0.8,1.9,1.3,3.1,1.3h0c1.2,0,2.3-0.4,3.1-1.3c0.8-0.8,1.3-1.9,1.3-3
		c0-2.4-2-4.3-4.4-4.3c-1.2,0-2.3,0.5-3.1,1.3C79.4,58.5,78.5,59.4,77.8,60.1z M68.1,55.8L68.1,55.8c-1.2,0-2.3,0.4-3.1,1.3
		c-0.8,0.8-1.3,1.9-1.3,3c0,1.1,0.5,2.2,1.3,3c0.8,0.8,1.9,1.3,3.1,1.3c0,0,0,0,0,0c1.2,0,2.3-0.5,3.1-1.3c1.4-1.4,2.4-2.4,3.1-3
		l-3.1-3.1C70.4,56.3,69.3,55.8,68.1,55.8z"/>
	<text transform="matrix(1 0 0 1 62.1776 81.7911)" class="st1 st2">KMS</text>
</g>
</svg>
