<?xml version="1.0" encoding="utf-8"?>
<!-- Generator: Adobe Illustrator 24.1.0, SVG Export Plug-In . SVG Version: 6.00 Build 0)  -->
<svg version="1.1"
	 id="Layer_1" xmlns:cc="http://creativecommons.org/ns#" xmlns:dc="http://purl.org/dc/elements/1.1/" xmlns:inkscape="http://www.inkscape.org/namespaces/inkscape" xmlns:rdf="http://www.w3.org/1999/02/22-rdf-syntax-ns#" xmlns:sodipodi="http://sodipodi.sourceforge.net/DTD/sodipodi-0.dtd" xmlns:svg="http://www.w3.org/2000/svg"
	 xmlns="http://www.w3.org/2000/svg" xmlns:xlink="http://www.w3.org/1999/xlink" x="0px" y="0px" viewBox="0 0 150 150"
	 style="enable-background:new 0 0 150 150;" xml:space="preserve">
<g>
	<path d="M138.6,53.6h-4l-5.3-16.9c-0.4-1.3-1.6-2.3-2.9-2.4c-5.6-0.5-11.2-0.7-16.8-0.7c-5.6,0-11.2,0.2-16.8,0.7
		c-1.4,0.1-2.5,1-2.9,2.4l-5.3,16.9h-4c-0.9,0-1.6,0.7-1.6,1.6v3.4c0,0.9,0.7,1.6,1.6,1.6h1.9c-0.1,0.3-0.1,0.6-0.2,0.9
		c0,0.3-0.1,0.5-0.1,0.8c3.4,0.1,6.8,0.3,10.1,0.6c1.1,0.1,2.1,0.4,3,1h1c1.3,0,2.4,1.1,2.4,2.4v1.8c0,0.2,0,0.4-0.1,0.5v0l2.9,9.3
		h25.3v3c0,2,1.6,3.6,3.6,3.6h2.7c2,0,3.6-1.6,3.6-3.6v-6.3c0,0,0,0,0,0V62c0-0.6-0.1-1.3-0.3-1.8h1.9c0.9,0,1.6-0.7,1.6-1.6v-3.4
		C140.2,54.3,139.5,53.6,138.6,53.6z M91,54.4c-0.9,0-1.5-0.8-1.3-1.6l3.8-12.6c0.6-1.8,1.3-1.7,2.4-1.8c4.6-0.4,9.1-0.5,13.7-0.5
		c4.6,0,9.1,0.2,13.7,0.5c1.1,0.1,1.8,0,2.4,1.8l3.8,12.6c0.3,0.8-0.4,1.6-1.3,1.6H91z M130.3,67.7c0,1.3-1.1,2.4-2.4,2.4h-5.1
		c-1.3,0-2.4-1.1-2.4-2.4v-1.8c0-1.3,1.1-2.4,2.4-2.4h5.1c1.3,0,2.4,1.1,2.4,2.4V67.7z"/>
	<path d="M51.9,67.5c0,0,0-0.1,0.1-0.2v-1.4c0-1.3,1.1-2.4,2.4-2.4H55c0.9-0.5,1.9-0.9,3-1c3.4-0.3,6.7-0.5,10.1-0.6
		c0-0.6-0.1-1.2-0.3-1.7h1.9c0.9,0,1.6-0.7,1.6-1.6v-3.4c0-0.9-0.7-1.6-1.6-1.6h-4l-5.3-16.9c-0.4-1.3-1.6-2.3-2.9-2.4
		c-11.2-1-22.4-1-33.6,0c-1.4,0.1-2.5,1-2.9,2.4l-5.3,16.9h-4c-0.9,0-1.6,0.7-1.6,1.6v3.4c0,0.9,0.7,1.6,1.6,1.6h1.9
		c-0.2,0.6-0.3,1.2-0.3,1.8v12.2c0,0,0,0,0,0v6.3c0,2,1.6,3.6,3.6,3.6h2.7c2,0,3.6-1.6,3.6-3.6v-3h25.3L51.9,67.5z M21,52.8
		l3.8-12.6c0.6-1.8,1.3-1.7,2.4-1.8c4.6-0.4,9.1-0.5,13.7-0.5s9.1,0.2,13.7,0.5c1.1,0.1,1.8,0,2.4,1.8l3.8,12.6
		c0.3,0.8-0.4,1.6-1.3,1.6H22.3C21.3,54.4,20.7,53.6,21,52.8z M30,67.7c0,1.3-1.1,2.4-2.4,2.4h-5.1c-1.3,0-2.4-1.1-2.4-2.4v-1.8
		c0-1.3,1.1-2.4,2.4-2.4h5.1c1.3,0,2.4,1.1,2.4,2.4V67.7z"/>
	<path d="M104.2,85.5h-4l-1.3-4.2l-1.2-3.7l-2.3-7.5l-0.5-1.6c-0.4-1.3-1.6-2.3-2.9-2.4c-1.1-0.1-2.1-0.2-3.2-0.2
		c-0.6,0-1.2-0.1-1.8-0.1c-0.8,0-1.7-0.1-2.5-0.1c-0.6,0-1.2,0-1.8-0.1c-0.2,0-0.4,0-0.5,0c-0.3,0-0.6,0-0.9,0h-0.6
		c-0.7,0-1.5,0-2.2,0c-1.1,0-2.2,0-3.3,0c-1.4,0-2.8,0-4.2,0c-0.9,0-1.9,0-2.8,0.1c-0.1,0-0.3,0-0.5,0c-0.8,0-1.7,0.1-2.5,0.1
		c-1.1,0-2.2,0.1-3.3,0.2c-1.2,0.1-2.4,0.2-3.6,0.3c-1.4,0.1-2.5,1-2.9,2.4l-0.5,1.6l-2.3,7.5l-2.5,7.9h-4c-0.9,0-1.6,0.7-1.6,1.6
		v3.4c0,0.9,0.7,1.6,1.6,1.6h1.9c-0.2,0.6-0.3,1.2-0.3,1.8v12.2c0,0,0,0,0,0v6.3c0,2,1.6,3.6,3.6,3.6h2.7c2,0,3.6-1.6,3.6-3.6v-3
		h34.8v3c0,2,1.6,3.6,3.6,3.6h2.7c2,0,3.6-1.6,3.6-3.6v-6.3c0,0,0,0,0,0V93.9c0-0.6-0.1-1.3-0.3-1.8h1.9c0.9,0,1.6-0.7,1.6-1.6v-3.4
		C105.8,86.2,105.1,85.5,104.2,85.5z M64.4,99.6c0,1.3-1.1,2.4-2.4,2.4h-5.1c-1.3,0-2.4-1.1-2.4-2.4v-1.8c0-1.3,1.1-2.4,2.4-2.4H62
		c1.3,0,2.4,1.1,2.4,2.4V99.6z M56.6,86.3c-0.9,0-1.5-0.8-1.3-1.6l2.1-7.1l1.6-5.6c0.6-1.8,1.3-1.7,2.4-1.8c2.2-0.2,4.5-0.3,6.7-0.4
		c2.3-0.1,4.7-0.1,7-0.1c1.1,0,2.2,0,3.3,0c1.2,0,2.5,0.1,3.7,0.1c2.2,0.1,4.5,0.2,6.7,0.4c1.1,0.1,1.8,0,2.4,1.8l1.6,5.6l2,6.6
		l0.1,0.5c0.3,0.8-0.4,1.6-1.3,1.6h-0.6H81.2H56.6z M95.9,99.6c0,1.3-1.1,2.4-2.4,2.4h-5.1c-1.3,0-2.4-1.1-2.4-2.4v-1.8
		c0-1.3,1.1-2.4,2.4-2.4h5.1c1.3,0,2.4,1.1,2.4,2.4V99.6z"/>
</g>
</svg>
